<?xml version="1.0" encoding="utf-8"?>
<!-- Generator: Adobe Illustrator 27.4.1, SVG Export Plug-In . SVG Version: 6.00 Build 0)  -->
<svg version="1.1" id="Layer_1" xmlns="http://www.w3.org/2000/svg" xmlns:xlink="http://www.w3.org/1999/xlink" x="0px" y="0px"
	 viewBox="0 0 881.2 122" style="enable-background:new 0 0 881.2 122;" xml:space="preserve">
<style type="text/css">
	.st0{fill:#050505;}
	.st1{fill:#F9C855;}
</style>
<g>
	<g>
		<path class="st0" d="M827.4,88.6c-2.3,0-4.5-0.7-6.2-1.6c-0.9-0.5-1.5-1.5-1.3-2.5c0.2-1.3,1.4-2.1,2.7-1.9c0.2,0,0.5,0.1,0.7,0.3
			c0.7,0.4,4.2,2.1,7.6,0c1.1-0.7,2.6-0.3,3.2,0.8c0.7,1.1,0.3,2.6-0.8,3.2C831.4,88.2,829.4,88.6,827.4,88.6z"/>
	</g>
	<g>
		<path class="st0" d="M806.1,76.8c0,4.4,3.6,8,8,8s8-3.6,8-8s-3.6-8-8-8S806.1,72.4,806.1,76.8z M815.9,76.8c0,1-0.8,1.9-1.9,1.9
			c-1,0-1.9-0.8-1.9-1.9s0.8-1.9,1.9-1.9C815.1,75,815.9,75.8,815.9,76.8z"/>
	</g>
	<g>
		<path class="st0" d="M840.2,84.3c4.4,0,8-3.6,8-8s-3.6-8-8-8s-8,3.6-8,8S835.8,84.3,840.2,84.3z M840.2,74.5c1,0,1.9,0.8,1.9,1.9
			c0,1-0.8,1.9-1.9,1.9s-1.9-0.8-1.9-1.9C838.3,75.3,839.2,74.5,840.2,74.5z"/>
	</g>
	<g>
		<path class="st0" d="M844.8,1.1c-3.4-1.9-8.1-1.3-12.8,1.4c-4.9,2.9-9.9,8.4-9.9,14.2c0,3.6,1.9,6.8,5.5,9.4
			c-2.6,5.1-3,9.9-2.7,13.6c0.6,4.5,7.4,4.4,7.3-0.9c-0.2-2.7,0.2-6,2.1-9.6c1.8,0.5,3.6,0.8,5.4,0.8c2,0,4-0.4,5.7-1.2v0
			c4-2,6.3-6.6,6.4-12.4C851.7,10.9,849.6,3.8,844.8,1.1z M837.2,24.3c-3.6,0-6.5-2.9-6.5-6.5s2.9-6.5,6.5-6.5
			c3.6,0,6.5,2.9,6.5,6.5S840.8,24.3,837.2,24.3z"/>
	</g>
	<g>
		<path class="st1" d="M838.3,47.8c-1,0-0.9,2.6-0.8,2.9c0.1,0.2,0.7,0.5,1.8,1.2c1.2,0.7,2.9,1.6,5,3.1c2.8,2,9.9,8.3,13,13.9
			c2.2,4.1,7.7,17.1,6.2,27.1c-1.2,7.8-7.6,10.5-12.4,10.5c-0.5,0-1.1,0-1.6-0.1c-0.1,0-11.4-1.3-21.9-1.3
			c-11.2,0-21.8,1.3-21.9,1.3c-5.1,0.6-13.1-1.7-14.4-10.4c-1.7-11.2,5.8-25.5,6.7-27.1c3-5.6,10.2-11.9,13-13.9
			c2.1-1.5,3.8-2.4,5-3.1c1.2-0.6,1.7-0.9,1.8-1.2c0.2-0.4,0.2-2.9-0.5-2.8c-12.2,2.4-21.6,9.2-27.8,20.2
			c-7.5,13.4-8.7,29.3-8.7,37.7c0,0.6,2.2,3.5,13.2,5.9c8.8,1.9,20.9,3,33.3,3c10.4,0,23.7-0.2,33.4-2c4.9-0.9,13.1-3,13.1-6.9
			c0-8.4-1.1-24.4-8.3-37.7C859.5,56.9,850.3,50.1,838.3,47.8z"/>
	</g>
	<g>
		<path class="st0" d="M872,64.5c-8.2-15-19.3-22.4-36.8-23.7c-2.6,0-5.5,10.9-4.1,13.4c1.2,2.1,2.9,3.1,4.8,4.1
			c1.2,0.6,2.5,1.3,4.2,2.6c2.7,1.9,8.6,7.4,10.8,11.4c2.2,4.1,6.5,15.1,5.4,22.5c-0.3,2-1.2,3.2-2.8,3.8c-1.5,0.5-3,0.4-3,0.4
			c-0.5-0.1-11.9-1.3-22.8-1.3c-11.6,0-22.3,1.3-22.8,1.3c0,0-1.6,0.1-3.1-0.4c-1.9-0.6-2.8-1.8-3.2-3.9c-1.1-7.2,3.4-17.8,5.9-22.5
			c2.2-4,8.1-9.5,10.8-11.4c1.7-1.2,3.1-2,4.2-2.6c1.8-1,3.6-1.9,4.8-4.1c1.3-2.4,0.9-14.3-3.9-14c-17.5,1.5-28.8,9.5-37.2,24.3
			c-8.4,14.8-9.6,32.2-9.6,41.3c0,6,6.2,10.3,19,13c9.3,2,22,3.2,34.8,3.2c26,0,53.8-1.3,53.8-16.2C881.2,96.7,880,79.2,872,64.5z
			 M860.8,112.6c-9.7,1.8-23,2-33.4,2c-12.4,0-24.5-1.1-33.3-3c-11-2.4-13.2-5.2-13.2-5.9c0-8.3,1.1-24.3,8.7-37.7
			c6.2-11,15.6-17.8,27.8-20.2c0.7-0.1,0.7,2.4,0.5,2.8c-0.1,0.2-0.7,0.5-1.8,1.2c-1.2,0.7-2.9,1.6-5,3.1c-2.8,2-9.9,8.3-13,13.9
			c-0.9,1.6-8.4,15.9-6.7,27.1c1.4,8.7,9.4,11,14.4,10.4c0.1,0,10.7-1.3,21.9-1.3c10.5,0,21.8,1.3,21.9,1.3c0.5,0.1,1,0.1,1.6,0.1
			c4.8,0,11.2-2.6,12.4-10.5c1.6-10-3.9-23-6.2-27.1c-3-5.6-10.2-11.9-13-13.9c-2.1-1.5-3.8-2.4-5-3.1c-1.2-0.6-1.7-0.9-1.8-1.2
			c-0.2-0.3-0.2-2.9,0.8-2.9c12.1,2.3,21.2,9.1,27.3,20.2c7.3,13.3,8.3,29.3,8.3,37.7C873.9,109.7,865.7,111.7,860.8,112.6z"/>
	</g>
</g>
<g>
	<path d="M4.1,61c-1.3,0-2.3,0.4-3,1.1C0.4,62.8,0,63.7,0,64.9v39c0,1.1,0.3,2,1.1,2.7c0.7,0.7,1.7,1.1,3,1.1c1.3,0,2.3-0.4,3.1-1.1
		c0.8-0.7,1.1-1.6,1.1-2.7v-39c0-1.1-0.4-2-1.2-2.8C6.3,61.3,5.3,61,4.1,61z"/>
	<path d="M4.1,43.5c-1.3,0-2.3,0.4-3,1.1C0.3,45.4,0,46.2,0,47.4v1.7c0,1.1,0.3,1.9,1.1,2.7c0.7,0.7,1.7,1.1,3,1.1
		c1.3,0,2.2-0.4,3-1.1c0.8-0.8,1.1-1.6,1.1-2.7v-1.7c0-1.1-0.4-2-1.2-2.8C6.3,43.9,5.3,43.5,4.1,43.5z"/>
	<path d="M33.6,54c2.4-2.4,5.9-3.7,10.5-3.7h15.2c1.1,0,2.1-0.4,3-1.3c0.9-0.9,1.3-1.7,1.3-2.7c0-1-0.4-1.9-1.3-2.7
		c-0.9-0.9-1.9-1.3-3-1.3H44c-7.3,0-13,1.9-16.9,5.6c-3.9,3.7-5.9,9.6-5.9,17.6v19.6c0,6.8,2,12.3,6,16.4c4,4.1,9.6,6.2,16.8,6.2
		h15.2c1.1,0,2.1-0.4,3-1.3c0.9-0.8,1.3-1.7,1.3-2.7c0-1-0.4-1.9-1.3-2.7c-0.9-0.8-1.9-1.2-3.2-1.2H44c-4.3,0-7.8-1.4-10.3-4.1
		c-2.4-2.7-3.7-6.2-3.7-10.6V65.5C30.1,60.2,31.2,56.4,33.6,54z"/>
	<path d="M95.1,61.1h-5.2c-4.8,0-8.6,1.5-11.6,4.7c-3.1,3.2-4.5,7.2-4.5,12.1v13.7c0,4.9,1.5,8.7,4.5,11.7c3.1,2.9,6.9,4.4,11.6,4.4
		h5.2c4.8,0,8.5-1.4,11.6-4.4c3-2.9,4.5-6.8,4.5-11.7V77.9c0-5-1.5-8.9-4.5-12.1C103.6,62.6,99.8,61.1,95.1,61.1z M103,92.6
		c0,2.5-0.8,4.5-2.3,6c-1.5,1.5-3.4,2.3-5.6,2.3h-5.2c-2.2,0-4.1-0.8-5.6-2.3c-1.5-1.5-2.2-3.5-2.2-6V76.7c0-2.7,0.7-4.8,2.2-6.4
		c1.5-1.6,3.4-2.5,5.6-2.5h5.2c2.2,0,4.1,0.8,5.6,2.4c1.5,1.6,2.3,3.8,2.3,6.4V92.6z"/>
	<path d="M143.4,61.1h-15.3c-1.6,0-2.9,0.5-3.9,1.6c-1,1.1-1.5,2.3-1.5,3.7v37.4c0,1.1,0.4,1.9,1.1,2.7c0.8,0.8,1.7,1.2,2.9,1.2
		c1.3,0,2.3-0.4,3.1-1.2c0.8-0.8,1.2-1.7,1.2-2.8V70.2v-1.7h1.7h10.7c2,0,3.8,0.9,5.1,2.5c1.3,1.6,1.9,3.6,1.9,6v26.8
		c0,1,0.4,1.9,1.2,2.7c0.8,0.8,1.7,1.2,2.8,1.2c1.3,0,2.3-0.4,3.1-1.2c0.8-0.8,1.2-1.6,1.2-2.7V76.9c0-4.8-1.5-8.6-4.5-11.5
		C151.3,62.5,147.7,61.1,143.4,61.1z"/>
	<path d="M201.1,61.1c-1.1,0-1.9,0.3-2.7,0.9c-0.8,0.6-1.2,1.3-1.4,2l-8.5,32.9c-0.3,1.2-1.3,1.7-2,1.7c-0.7,0-1.7-0.4-2-1.7
		l-8.8-33.1c-0.2-0.7-0.7-1.4-1.4-1.9c-0.8-0.5-1.7-0.8-2.7-0.8c-1.1,0-2.1,0.4-3,1.2c-0.8,0.8-1.2,1.5-1.2,2.4c0,0.1,0,0.3,0.1,0.5
		l10.8,36.9c0.5,1.6,1.4,2.9,2.9,3.9c1.5,1.1,3.2,1.6,5.1,1.6c2.1,0,3.8-0.5,5.3-1.6c1.5-1.1,2.4-2.4,2.9-4l10.5-35.3
		c0.1-0.5,0.2-1.1,0.2-1.7c0-1.2-0.3-2.1-1-2.9C203.4,61.4,202.4,61.1,201.1,61.1z"/>
	<path d="M231.1,61.1c-5.2,0-9.4,1.6-12.9,4.9c-3.4,3.3-5.1,7.6-5.1,13.2V86c0,7.6,1.3,13.2,3.9,16.7c2.5,3.3,7.1,5,13.8,5h13.2
		c1.2,0,2.2-0.4,2.9-1.1c0.7-0.7,1.1-1.6,1.1-2.6c0-1-0.3-1.9-1.1-2.6c-0.8-0.7-1.7-1.1-3-1.1h-13.1c-3.1,0-5.4-0.9-6.8-2.6
		c-1.4-1.6-2.1-4.1-2.4-7.7l-0.1-1.8h1.8h20.6c1.6,0,2.9-0.5,3.9-1.5c1-0.9,1.5-2.1,1.5-3.5v-4c0-5.9-1.6-10.2-4.8-13.4
		C241.5,62.7,237,61.1,231.1,61.1z M241.1,78v2.2v1.7h-1.7h-16.1h-1.7v-1.7V78V78l0-0.1c0.2-2.9,1.2-5.2,2.8-6.9
		c1.7-1.7,3.9-2.6,6.8-2.6c6,0,9.6,3.4,10,9.5L241.1,78L241.1,78z"/>
	<path d="M281.5,60.3h-2.7c-4,0-7.2,0.9-9.6,2.5l-2.1,1.5l-0.6-2.4c-0.2-1-0.7-1.5-2.2-1.5h-2.3c-1.4,0-1.8,0.4-1.8,1.8v41.7
		c0,1.1,0.3,2,1.1,2.7c0.7,0.7,1.7,1.1,3,1.1c1.3,0,2.3-0.4,3-1.1c0.8-0.7,1.1-1.6,1.1-2.7V78.6c0-7.1,3.6-10.9,10.3-10.9h2.8
		c1.2,0,2.1-0.4,2.9-1.1c0.8-0.7,1.1-1.6,1.1-2.6c0-1-0.3-1.9-1.1-2.6C283.8,60.6,282.8,60.3,281.5,60.3z"/>
	<path d="M308,68.8h1.7h7.9c1.3,0,2.2-0.4,3-1.1c0.8-0.8,1.1-1.6,1.1-2.7c0-1.1-0.4-2-1.2-2.8c-0.8-0.8-1.8-1.1-3.1-1.1h-7.8H308
		v-1.7v-4.9c0-1-0.4-1.9-1.2-2.7c-0.8-0.8-1.8-1.1-3-1.1c-1.2,0-2.2,0.4-3,1.2c-0.8,0.8-1.2,1.6-1.2,2.6v4.9v1.7h-1.7h-2
		c-1.3,0-2.3,0.4-3.1,1.2c-0.8,0.8-1.2,1.6-1.2,2.7c0,1,0.4,1.9,1.2,2.6c0.8,0.8,1.8,1.2,3.1,1.2h2h1.7v1.7v22.3
		c0,10.8,4.7,15.8,14.7,15.8h3.2c1.3,0,2.3-0.4,3.1-1.1c0.8-0.7,1.1-1.6,1.1-2.7c0-1.1-0.4-2-1.2-2.8c-0.8-0.8-1.8-1.1-3-1.1h-3.2
		c-2.3,0-4-0.7-5-2.1c-0.9-1.2-1.3-3.1-1.3-6V70.5V68.8z"/>
	<path d="M389.8,42.3h-20c-1.7,0-3.1,0.5-4.2,1.6c-1.1,1.1-1.6,2.4-1.6,3.9v55.7c0,1.2,0.4,2.1,1.2,2.9c0.8,0.8,1.8,1.2,3.2,1.2
		c1.3,0,2.3-0.4,3.2-1.2c0.8-0.8,1.2-1.8,1.2-3.1V79.7V78h1.7h15.4c5.1,0,9.3-1.7,12.9-5.3c3.6-3.5,5.3-7.6,5.3-12.6
		c0-4.9-1.7-9-5.3-12.5C399.2,44.1,394.9,42.3,389.8,42.3z M396.5,67c-1.9,1.9-4.1,2.9-6.7,2.9h-15.4h-1.7v-1.7V52v-1.7h1.7h15.4
		c2.6,0,4.8,1,6.7,2.9c1.8,1.9,2.8,4.3,2.8,6.9C399.3,62.8,398.3,65.1,396.5,67z"/>
	<path d="M440.8,60.3h-2.7c-4,0-7.2,0.9-9.6,2.5l-2.1,1.5l-0.6-2.4c-0.2-1-0.7-1.5-2.2-1.5h-2.3c-1.4,0-1.8,0.4-1.8,1.8v41.7
		c0,1.1,0.3,2,1.1,2.7c0.7,0.7,1.7,1.1,3,1.1c1.3,0,2.3-0.4,3.1-1.1c0.8-0.7,1.1-1.6,1.1-2.7V78.6c0-7.1,3.6-10.9,10.3-10.9h2.8
		c1.2,0,2.1-0.4,2.9-1.1c0.8-0.7,1.1-1.6,1.1-2.6c0-1-0.3-1.9-1.1-2.6C443.2,60.6,442.2,60.3,440.8,60.3z"/>
	<path d="M473.2,61.1h-5.2c-4.8,0-8.6,1.5-11.6,4.7c-3.1,3.2-4.5,7.2-4.5,12.1v13.7c0,4.9,1.5,8.7,4.5,11.7
		c3.1,2.9,6.9,4.4,11.6,4.4h5.2c4.8,0,8.5-1.4,11.6-4.4c3-2.9,4.5-6.8,4.5-11.7V77.9c0-5-1.5-8.9-4.5-12.1
		C481.7,62.6,477.9,61.1,473.2,61.1z M481.1,92.6c0,2.5-0.8,4.5-2.3,6c-1.5,1.5-3.4,2.3-5.6,2.3h-5.2c-2.2,0-4.1-0.8-5.6-2.3
		c-1.5-1.5-2.2-3.5-2.2-6V76.7c0-2.7,0.7-4.8,2.2-6.4c1.5-1.6,3.4-2.5,5.6-2.5h5.2c2.2,0,4.1,0.8,5.6,2.4c1.5,1.6,2.3,3.8,2.3,6.4
		V92.6z"/>
	<path d="M544.9,61.1h-38.8c-1.6,0-2.9,0.5-3.9,1.6c-1,1.1-1.5,2.3-1.5,3.7v37.4c0,1.1,0.4,2,1.1,2.8c0.7,0.8,1.6,1.1,2.9,1.1
		c1.3,0,2.3-0.4,3.1-1.1c0.8-0.8,1.2-1.7,1.2-2.8V70.2v-1.7h1.7h13.9h1.7v1.7v33.6c0,1.1,0.4,1.9,1.1,2.7c0.8,0.8,1.7,1.2,3,1.2
		c1.2,0,2.1-0.4,2.9-1.1c0.8-0.8,1.1-1.7,1.1-2.8V70.2v-1.7h1.7h8.6c2,0,3.8,0.9,5.1,2.5c1.3,1.6,2,3.6,2,6v26.8
		c0,1.1,0.4,1.9,1.1,2.7c0.8,0.8,1.7,1.2,2.9,1.2c1.2,0,2.2-0.4,3-1.2c0.8-0.8,1.2-1.7,1.2-2.7V76.9c0-4.8-1.5-8.6-4.5-11.5
		C552.8,62.5,549.2,61.1,544.9,61.1z"/>
	<path d="M592.5,61.1h-5.2c-4.8,0-8.6,1.5-11.6,4.7c-3.1,3.2-4.5,7.2-4.5,12.1v13.7c0,4.9,1.5,8.7,4.5,11.7
		c3.1,2.9,6.9,4.4,11.6,4.4h5.2c4.8,0,8.5-1.4,11.6-4.4c3-2.9,4.5-6.8,4.5-11.7V77.9c0-5-1.5-8.9-4.5-12.1
		C601,62.6,597.2,61.1,592.5,61.1z M600.4,92.6c0,2.5-0.8,4.5-2.3,6c-1.5,1.5-3.4,2.3-5.6,2.3h-5.2c-2.2,0-4.1-0.8-5.6-2.3
		c-1.5-1.5-2.2-3.5-2.2-6V76.7c0-2.7,0.7-4.8,2.2-6.4c1.5-1.6,3.4-2.5,5.6-2.5h5.2c2.2,0,4.1,0.8,5.6,2.4c1.5,1.6,2.3,3.8,2.3,6.4
		V92.6z"/>
	<path d="M633,68.8h1.7h7.9c1.3,0,2.2-0.4,3-1.1c0.8-0.8,1.1-1.6,1.1-2.7c0-1.1-0.4-2-1.2-2.8c-0.8-0.8-1.8-1.1-3.1-1.1h-7.8H633
		v-1.7v-4.9c0-1-0.4-1.9-1.2-2.7c-0.8-0.8-1.8-1.1-3-1.1c-1.2,0-2.2,0.4-3,1.2c-0.8,0.8-1.2,1.6-1.2,2.6v4.9v1.7h-1.7h-2
		c-1.3,0-2.3,0.4-3.1,1.2c-0.8,0.8-1.2,1.6-1.2,2.7c0,1,0.4,1.9,1.2,2.6c0.8,0.8,1.8,1.2,3.1,1.2h2h1.7v1.7v22.3
		c0,10.8,4.7,15.8,14.7,15.8h3.2c1.3,0,2.3-0.4,3.1-1.1c0.8-0.7,1.1-1.6,1.1-2.7c0-1.1-0.4-2-1.2-2.8c-0.8-0.8-1.8-1.1-3-1.1h-3.2
		c-2.3,0-4-0.7-5-2.1c-0.9-1.2-1.3-3.1-1.3-6V70.5V68.8z"/>
	<path d="M673.1,61.1c-5.2,0-9.4,1.6-12.9,4.9c-3.4,3.3-5.1,7.6-5.1,13.2V86c0,7.6,1.3,13.2,3.9,16.7c2.5,3.3,7.1,5,13.8,5H686
		c1.2,0,2.2-0.4,2.9-1.1c0.7-0.7,1.1-1.6,1.1-2.6c0-1-0.3-1.9-1.1-2.6c-0.8-0.7-1.7-1.1-3-1.1h-13.1c-3.1,0-5.4-0.9-6.8-2.6
		c-1.4-1.6-2.1-4.1-2.4-7.7l-0.1-1.8h1.8H686c1.6,0,2.9-0.5,3.9-1.5c1-0.9,1.5-2.1,1.5-3.5v-4c0-5.9-1.6-10.2-4.8-13.4
		C683.5,62.7,678.9,61.1,673.1,61.1z M683,78v2.2v1.7h-1.7h-16.1h-1.7v-1.7V78V78l0-0.1c0.2-2.9,1.2-5.2,2.8-6.9
		c1.7-1.7,3.9-2.6,6.8-2.6c6,0,9.6,3.4,10,9.5L683,78L683,78z"/>
	<path d="M726.5,61.4c-0.8-0.7-1.8-1.1-3.1-1.1h-2.7c-4,0-7.2,0.9-9.6,2.5l-2.1,1.5l-0.6-2.4c-0.2-1-0.7-1.5-2.2-1.5h-2.3
		c-1.4,0-1.8,0.4-1.8,1.8v41.7c0,1.1,0.3,2,1.1,2.7c0.7,0.7,1.7,1.1,3,1.1c1.3,0,2.3-0.4,3.1-1.1c0.8-0.7,1.1-1.6,1.1-2.7V78.6
		c0-7.1,3.6-10.9,10.3-10.9h2.8c1.2,0,2.1-0.4,2.9-1.1c0.8-0.7,1.1-1.6,1.1-2.6C727.6,62.9,727.3,62.1,726.5,61.4z"/>
</g>
</svg>
